<svg xmlns="http://www.w3.org/2000/svg" viewBox="0 0 100 100">
  <defs>
    <linearGradient id="grad" x1="0%" y1="0%" x2="100%" y2="100%">
      <stop offset="0%" style="stop-color:#9b6dff"/>
      <stop offset="100%" style="stop-color:#00d4b4"/>
    </linearGradient>
  </defs>
  <circle cx="50" cy="50" r="45" fill="url(#grad)"/>
  <path d="M50 20 C30 20 25 40 25 50 C25 70 35 80 50 80 C65 80 75 70 75 50 C75 40 70 20 50 20 M50 30 C60 30 65 40 65 50 C65 60 60 70 50 70 C40 70 35 60 35 50 C35 40 40 30 50 30" fill="white"/>
  <circle cx="45" cy="45" r="5" fill="white"/>
  <circle cx="55" cy="45" r="5" fill="white"/>
</svg>
